<svg xmlns="http://www.w3.org/2000/svg" width="840" height="520" viewBox="0 0 840 520">
<defs>
  <marker id="arrowhead" markerWidth="10" markerHeight="7" refX="10" refY="3.5" orient="auto">
    <polygon points="0 0, 10 3.5, 0 7" fill="black"/>
  </marker>
  <marker id="arrowhead-rev" markerWidth="10" markerHeight="7" refX="0" refY="3.5" orient="auto">
    <polygon points="10 0, 0 3.5, 10 7" fill="black"/>
  </marker>
</defs>
<rect width="840" height="520" fill="white"/>
<polyline points="310,140 310,160 390,160 390,180" fill="none" stroke="black" stroke-width="1.5"  marker-end="url(#arrowhead)"/>
<text x="390" y="140" text-anchor="middle" font-family="monospace" font-size="12" fill="#333">HTTP</text>
<polyline points="390,320 390,340 560,340 560,360" fill="none" stroke="black" stroke-width="1.5"  marker-end="url(#arrowhead)"/>
<polyline points="390,320 390,340 380,340 380,360" fill="none" stroke="black" stroke-width="1.5"  marker-end="url(#arrowhead)"/>
<polyline points="390,320 390,340 200,340 200,360" fill="none" stroke="black" stroke-width="1.5"  marker-end="url(#arrowhead)"/>
<polyline points="720,140 720,160 510,160 510,300 560,300 560,360" fill="none" stroke="black" stroke-width="1.5"  marker-end="url(#arrowhead)"/>
<text x="560" y="280" text-anchor="middle" font-family="monospace" font-size="12" fill="#333">writes</text>
<rect x="20" y="20" width="580" height="120" fill="none" stroke="#888" stroke-width="1" stroke-dasharray="4 2"/>
<text x="28" y="36" font-family="monospace" font-size="12" fill="#666">Frontend</text>
<rect x="640" y="20" width="160" height="120" fill="none" stroke="#888" stroke-width="1" stroke-dasharray="4 2"/>
<text x="648" y="36" font-family="monospace" font-size="12" fill="#666">Worker</text>
<rect x="320" y="200" width="150" height="120" fill="none" stroke="#888" stroke-width="1" stroke-dasharray="4 2"/>
<text x="328" y="216" font-family="monospace" font-size="12" fill="#666">Backend</text>
<rect x="40" y="60" width="130" height="60" rx="0" fill="white" stroke="black" stroke-width="1.5"/>
<text x="105" y="90" dominant-baseline="central" text-anchor="middle" font-family="monospace" font-size="14">Grid View</text>
<rect x="180" y="60" width="120" height="60" rx="0" fill="white" stroke="black" stroke-width="1.5"/>
<text x="240" y="90" dominant-baseline="central" text-anchor="middle" font-family="monospace" font-size="14">Timeline</text>
<rect x="310" y="60" width="140" height="60" rx="0" fill="white" stroke="black" stroke-width="1.5"/>
<text x="380" y="90" dominant-baseline="central" text-anchor="middle" font-family="monospace" font-size="14">Board View</text>
<rect x="460" y="60" width="120" height="60" rx="0" fill="white" stroke="black" stroke-width="1.5"/>
<text x="520" y="90" dominant-baseline="central" text-anchor="middle" font-family="monospace" font-size="14">LLM Chat</text>
<rect x="660" y="60" width="120" height="60" rx="0" fill="white" stroke="black" stroke-width="1.5"/>
<text x="720" y="90" dominant-baseline="central" text-anchor="middle" font-family="monospace" font-size="14">Git Sync</text>
<rect x="340" y="240" width="110" height="60" rx="0" fill="white" stroke="black" stroke-width="1.5"/>
<text x="395" y="270" dominant-baseline="central" text-anchor="middle" font-family="monospace" font-size="14">FastAPI</text>
<rect x="130" y="380" width="140" height="80" rx="0" fill="white" stroke="black" stroke-width="1.5"/>
<text text-anchor="middle" font-family="monospace" font-size="14"><tspan x="200" y="411">Claude API</tspan><tspan x="200" y="427">tool_use</tspan></text>
<rect x="310" y="380" width="140" height="80" rx="0" fill="white" stroke="black" stroke-width="1.5"/>
<text text-anchor="middle" font-family="monospace" font-size="14"><tspan x="380" y="411">Minio</tspan><tspan x="380" y="427">blob store</tspan></text>
<rect x="490" y="380" width="140" height="60" rx="0" fill="white" stroke="black" stroke-width="1.5"/>
<text x="560" y="410" dominant-baseline="central" text-anchor="middle" font-family="monospace" font-size="14">PostgreSQL</text>
</svg>