<svg xmlns="http://www.w3.org/2000/svg" width="200" height="380" viewBox="0 0 200 380">
<defs>
  <marker id="arrowhead" markerWidth="10" markerHeight="7" refX="10" refY="3.5" orient="auto">
    <polygon points="0 0, 10 3.5, 0 7" fill="black"/>
  </marker>
  <marker id="arrowhead-rev" markerWidth="10" markerHeight="7" refX="0" refY="3.5" orient="auto">
    <polygon points="10 0, 0 3.5, 10 7" fill="black"/>
  </marker>
</defs>
<rect width="200" height="380" fill="white"/>
<polyline points="80,80 80,100 40,100 40,120" fill="none" stroke="black" stroke-width="1.5"  marker-end="url(#arrowhead)"/>
<polyline points="80,80 80,100 130,100 130,120" fill="none" stroke="black" stroke-width="1.5"  marker-end="url(#arrowhead)"/>
<polyline points="40,200 40,220 80,220 80,240" fill="none" stroke="black" stroke-width="1.5"  marker-end="url(#arrowhead)"/>
<polyline points="130,200 130,220 80,220 80,240" fill="none" stroke="black" stroke-width="1.5"  marker-end="url(#arrowhead)"/>
<rect x="60" y="20" width="50" height="60" rx="0" fill="white" stroke="black" stroke-width="1.5"/>
<text x="85" y="50" dominant-baseline="central" text-anchor="middle" font-family="monospace" font-size="14">A</text>
<rect x="20" y="140" width="50" height="60" rx="0" fill="white" stroke="black" stroke-width="1.5"/>
<text x="45" y="170" dominant-baseline="central" text-anchor="middle" font-family="monospace" font-size="14">B</text>
<rect x="110" y="140" width="50" height="60" rx="0" fill="white" stroke="black" stroke-width="1.5"/>
<text x="135" y="170" dominant-baseline="central" text-anchor="middle" font-family="monospace" font-size="14">C</text>
<rect x="60" y="260" width="50" height="60" rx="0" fill="white" stroke="black" stroke-width="1.5"/>
<text x="85" y="290" dominant-baseline="central" text-anchor="middle" font-family="monospace" font-size="14">D</text>
</svg>