<svg xmlns="http://www.w3.org/2000/svg" width="360" height="500" viewBox="0 0 360 500">
<defs>
  <marker id="arrowhead" markerWidth="10" markerHeight="7" refX="10" refY="3.5" orient="auto">
    <polygon points="0 0, 10 3.5, 0 7" fill="black"/>
  </marker>
  <marker id="arrowhead-rev" markerWidth="10" markerHeight="7" refX="0" refY="3.5" orient="auto">
    <polygon points="10 0, 0 3.5, 10 7" fill="black"/>
  </marker>
</defs>
<rect width="360" height="500" fill="white"/>
<polyline points="160,80 160,100 170,100 170,120" fill="none" stroke="black" stroke-width="1.5"  marker-end="url(#arrowhead)"/>
<polyline points="170,200 170,220 80,220 80,240" fill="none" stroke="black" stroke-width="1.5"  marker-end="url(#arrowhead)"/>
<text x="80" y="212" text-anchor="middle" font-family="monospace" font-size="12" fill="#333">yes</text>
<polyline points="170,200 170,220 250,220 250,240" fill="none" stroke="black" stroke-width="1.5"  marker-end="url(#arrowhead)"/>
<text x="250" y="212" text-anchor="middle" font-family="monospace" font-size="12" fill="#333">no</text>
<polyline points="80,320 80,340 160,340 160,360" fill="none" stroke="black" stroke-width="1.5"  marker-end="url(#arrowhead)"/>
<polyline points="250,320 250,340 160,340 160,360" fill="none" stroke="black" stroke-width="1.5"  marker-end="url(#arrowhead)"/>
<rect x="120" y="20" width="90" height="60" rx="0" fill="white" stroke="black" stroke-width="1.5"/>
<text x="165" y="50" dominant-baseline="central" text-anchor="middle" font-family="monospace" font-size="14">Start</text>
<polygon points="170,140 230,170 170,200 110,170" fill="white" stroke="black" stroke-width="1.5"/>
<text x="170" y="170" dominant-baseline="central" text-anchor="middle" font-family="monospace" font-size="14">Decision</text>
<rect x="20" y="260" width="130" height="60" rx="0" fill="white" stroke="black" stroke-width="1.5"/>
<text x="85" y="290" dominant-baseline="central" text-anchor="middle" font-family="monospace" font-size="14">Process A</text>
<rect x="190" y="260" width="130" height="60" rx="0" fill="white" stroke="black" stroke-width="1.5"/>
<text x="255" y="290" dominant-baseline="central" text-anchor="middle" font-family="monospace" font-size="14">Process B</text>
<rect x="130" y="380" width="70" height="60" rx="0" fill="white" stroke="black" stroke-width="1.5"/>
<text x="165" y="410" dominant-baseline="central" text-anchor="middle" font-family="monospace" font-size="14">End</text>
</svg>