<svg xmlns="http://www.w3.org/2000/svg" width="370" height="380" viewBox="0 0 370 380">
<defs>
  <marker id="arrowhead" markerWidth="10" markerHeight="7" refX="10" refY="3.5" orient="auto">
    <polygon points="0 0, 10 3.5, 0 7" fill="black"/>
  </marker>
  <marker id="arrowhead-rev" markerWidth="10" markerHeight="7" refX="0" refY="3.5" orient="auto">
    <polygon points="10 0, 0 3.5, 10 7" fill="black"/>
  </marker>
</defs>
<rect width="370" height="380" fill="white"/>
<polyline points="170,140 170,180" fill="none" stroke="black" stroke-width="1.5"  marker-end="url(#arrowhead)"/>
<rect x="20" y="20" width="300" height="120" fill="none" stroke="#888" stroke-width="1" stroke-dasharray="4 2"/>
<text x="28" y="36" font-family="monospace" font-size="12" fill="#666">Frontend</text>
<rect x="20" y="200" width="310" height="120" fill="none" stroke="#888" stroke-width="1" stroke-dasharray="4 2"/>
<text x="28" y="216" font-family="monospace" font-size="12" fill="#666">Backend</text>
<rect x="40" y="60" width="110" height="60" rx="0" fill="white" stroke="black" stroke-width="1.5"/>
<text x="95" y="90" dominant-baseline="central" text-anchor="middle" font-family="monospace" font-size="14">Web App</text>
<rect x="160" y="60" width="140" height="60" rx="0" fill="white" stroke="black" stroke-width="1.5"/>
<text x="230" y="90" dominant-baseline="central" text-anchor="middle" font-family="monospace" font-size="14">Mobile App</text>
<rect x="40" y="240" width="140" height="60" rx="0" fill="white" stroke="black" stroke-width="1.5"/>
<text x="110" y="270" dominant-baseline="central" text-anchor="middle" font-family="monospace" font-size="14">API Server</text>
<rect x="190" y="240" width="120" height="60" rx="0" fill="white" stroke="black" stroke-width="1.5"/>
<text x="250" y="270" dominant-baseline="central" text-anchor="middle" font-family="monospace" font-size="14">Database</text>
</svg>